<?xml version="1.0" standalone="no"?><!DOCTYPE svg PUBLIC "-//W3C//DTD SVG 1.1//EN" "http://www.w3.org/Graphics/SVG/1.1/DTD/svg11.dtd"><svg t="1745400227093" class="icon" viewBox="0 0 1024 1024" version="1.1" xmlns="http://www.w3.org/2000/svg" p-id="31892" xmlns:xlink="http://www.w3.org/1999/xlink" width="200" height="200"><path d="M600.1 422.9m-275.4 0a275.4 275.4 0 1 0 550.8 0 275.4 275.4 0 1 0-550.8 0Z" fill="#A5E8D0" p-id="31893"></path><path d="M454.3 738.8c-174.2 0-315.9-141.7-315.9-315.9S280.1 107 454.3 107s315.9 141.7 315.9 315.9-141.7 315.9-315.9 315.9z m0-550.7c-129.5 0-234.9 105.4-234.9 234.9s105.4 234.9 234.9 234.9S689.2 552.5 689.2 423 583.8 188.1 454.3 188.1zM932.1 916.9H91.9c-22.3 0-40.5-18.2-40.5-40.5s18.2-40.5 40.5-40.5h840.2c22.3 0 40.5 18.2 40.5 40.5s-18.2 40.5-40.5 40.5z" fill="#2A2A2A" p-id="31894"></path></svg>