<?xml version="1.0" standalone="no"?><!DOCTYPE svg PUBLIC "-//W3C//DTD SVG 1.1//EN" "http://www.w3.org/Graphics/SVG/1.1/DTD/svg11.dtd"><svg t="1745400516333" class="icon" viewBox="0 0 1024 1024" version="1.1" xmlns="http://www.w3.org/2000/svg" p-id="33984" xmlns:xlink="http://www.w3.org/1999/xlink" width="200" height="200"><path d="M920.489136 566.51231v-50.824515-89.445783a28.09429 28.09429 0 0 0-6.705082-20.919854 22.663174 22.663174 0 0 0-16.762703-6.101624c-8.314301 0-22.32792 3.419591-23.19958 25.881614V937.973808c0 27.691985-11.935045 39.559979-40.230488 39.559979H252.327795v-22.260869-61.418544c0-50.824515-30.776323-81.399686-81.667889-81.667889h-80.460975V721.936092v-586.024096c0-25.747512 13.410162-38.82242 39.492929-38.82242h445.887899a45.3934 45.3934 0 0 0 12.002095-1.273966 23.266632 23.266632 0 0 0 17.097957-18.17077 20.852803 20.852803 0 0 0-8.381351-21.053955 39.761131 39.761131 0 0 0-23.467784-5.900471H127.814437C77.995684 50.891566 44.470278 85.08748 44.470278 135.911996V811.314825a71.744369 71.744369 0 0 0 21.791514 53.640649c43.180723 42.711367 86.830801 86.428497 129.005762 128.737559l8.984808 8.984809a70.403353 70.403353 0 0 0 52.366685 21.255107h219.122053c161.726558 0 213.489785 0 359.25825-0.469355a101.045574 101.045574 0 0 0 45.862756-11.599791c26.820325-14.348874 39.761131-39.828182 39.69408-77.913043v-256.670509zM215.248696 938.174961v6.705081L122.249219 849.533787h26.283919c10.526977 0 19.243583 0 27.356731 0.603458a38.01781 38.01781 0 0 1 38.956522 38.755369c0.80461 16.293347 0.603457 32.18439 0.402305 49.282347z" fill="#00AA64" p-id="33985"></path><path d="M510.473421 269.410162c-6.302776 28.965951-12.940807 58.334206-19.444736 86.6967q-5.833421 25.546359-11.532739 51.092719L473.595474 432.947093C465.214123 470.6967 456.430466 509.586171 448.317318 548.408591a28.362493 28.362493 0 0 0 4.492404 24.8088 25.278156 25.278156 0 0 0 20.115244 8.716606 42.644316 42.644316 0 0 0 9.320063-1.072813 110.902043 110.902043 0 0 0 14.617077-4.559455l84.685175-32.117339q85.959141-32.586695 171.918282-65.039288a69.933997 69.933997 0 0 0 42.040859-40.230487q18.841278-44.789942 37.95076-89.378732 13.410162-32.050288 27.28968-64.167627c2.011524-4.760608 3.620744-9.655317 5.565218-15.287585 0.938711-2.883185 2.011524-6.034573 3.218439-9.521216l-0.603458-5.632268c-1.408067-2.279728-2.682032-4.894709-4.023048-7.509691a67.050812 67.050812 0 0 0-13.410163-20.115244c-21.791514-20.115244-44.454688-39.425877-66.380304-58.401257q-15.958093-13.745416-31.849135-27.624934c-14.080671-12.337349-24.339445-17.36616-35.268727-17.366161a61.284442 61.284442 0 0 0-31.37978 11.197486l-37.883709 22.931378c-33.525406 20.115244-68.257727 41.3033-102.654793 61.418543a72.213724 72.213724 0 0 0-35.603981 49.952855z m143.68989 46.935569v6.705081A25.546359 25.546359 0 0 1 654.632666 374.143531h-0.938711a24.339445 24.339445 0 0 1-17.29911-7.37559 25.546359 25.546359 0 0 1 17.29911-43.717129l0.402305-6.705081z m-92.597172 194.447354L527.236124 523.935045l3.687794-4.291252c12.806705-15.019382 24.8088-29.100052 36.944998-43.046622C574.171692 469.355684 580.876773 462.114196 586.978397 455.00681 598.242933 442.535359 609.909775 429.125196 621.10726 415.715034c5.162913-6.369827 7.911996-7.509691 11.398638-7.509691a24.205343 24.205343 0 0 1 6.705082 1.206915 58.401257 58.401257 0 0 0 16.56155 2.413829 61.820849 61.820849 0 0 0 53.64065-32.787847 62.692509 62.692509 0 0 0-55.451022-93.535883 64.636983 64.636983 0 0 0-33.525406 9.253012c-28.831849 17.500262-36.475642 49.952855-20.718701 87.166056l-101.649031 117.338921 0.938712-4.157151q5.699319-25.747512 11.465689-51.427972l8.515453-37.883709c9.655317-42.97957 19.578837-87.166056 30.306967-130.816134A37.749607 37.749607 0 0 1 564.181121 254.793085c42.711367-26.820325 89.378732-55.115767 146.774227-88.775275a12.605553 12.605553 0 0 1 5.498167-1.005762 12.270299 12.270299 0 0 1 6.235725 1.273966c19.578837 16.293347 39.090623 33.525406 57.998953 49.818753 13.946569 12.136197 27.826087 24.272394 41.906757 36.207438a12.069146 12.069146 0 0 1 4.224201 17.232059c-9.387114 21.322158-18.506024 42.778418-27.691985 64.167627-12.940807 30.172865-26.283918 61.284442-40.230487 91.65846a35.402829 35.402829 0 0 1-16.963856 16.762703c-59.742273 23.333683-120.825563 46.466213-180.366684 68.861184z" fill="#00AA64" p-id="33986"></path><path d="M691.778816 718.784704a29.70351 29.70351 0 0 0 18.304872 6.705081 16.293347 16.293347 0 0 0 7.777894-1.743321 15.958093 15.958093 0 0 0 8.850707-10.795181 25.077004 25.077004 0 0 0-6.705081-19.377684 51.495024 51.495024 0 0 0-40.230487-21.657413 53.171294 53.171294 0 0 0-31.178628 10.929283 286.709272 286.709272 0 0 0-33.525406 29.904662l-1.944473 1.877423a13.410162 13.410162 0 0 1-7.710844 4.693557 12.002095 12.002095 0 0 1-6.705081-4.492405c-10.862232-11.733892-22.730225-23.803038-35.268727-35.939235a67.520168 67.520168 0 0 0-47.606076-20.718701 74.493452 74.493452 0 0 0-30.709272 7.107386 252.446307 252.446307 0 0 0-32.854898 19.042431l-7.979047 5.095861c-8.314301 5.297014-16.226296 10.661079-25.345207 16.963856h-0.402305c0-1.206915 0.402305-2.346778 0.670509-3.486642 1.408067-6.705081 2.950236-13.879518 4.492404-20.852803 3.28549-14.818229 6.705081-30.172865 8.984809-45.527501 4.0901-26.820325-7.576742-39.157674-18.17077-44.789943a40.230487 40.230487 0 0 0-18.97538-4.894709 37.481404 37.481404 0 0 0-27.557884 12.203248 80.93033 80.93033 0 0 0-17.768465 33.525406 282.954426 282.954426 0 0 0-5.900471 30.642221c-1.273965 8.24725-2.614982 16.695652-4.492405 24.8088a103.526454 103.526454 0 0 1-7.576742 19.310634l-0.670508 1.408067c-16.025144-17.902567-18.707177-34.464117-9.588266-55.38397l7.509691-17.030907c11.59979-26.350969 23.601886-53.64065 33.525406-81.198533a395.197486 395.197486 0 0 0 19.712939-80.460974 34.598219 34.598219 0 0 0-7.174437-27.759036A28.764798 28.764798 0 0 0 352.904013 437.372446a42.10791 42.10791 0 0 0-19.176533 4.96176 115.461498 115.461498 0 0 0-33.525406 25.814563c-32.921949 37.548455-36.743845 84.819277-36.408591 121.898376a220.127816 220.127816 0 0 0 3.888948 34.061813 134.101624 134.101624 0 0 1 2.682032 44.186485 149.590361 149.590361 0 0 1-18.97538 44.65584c-4.760608 8.582504-9.655317 17.433211-13.410162 26.820325a24.473546 24.473546 0 0 0 1.67627 17.567313 53.64065 53.64065 0 0 1 1.743321 5.632268l9.185962 4.559455a53.975904 53.975904 0 0 1 5.498166-2.011524 25.345207 25.345207 0 0 0 14.952331-9.05186 388.894709 388.894709 0 0 0 18.371923-34.73232l1.542168-3.151388a144.360398 144.360398 0 0 0 8.515453 13.410162 39.828182 39.828182 0 0 0 31.37978 18.506024c7.979047 0 20.115244-3.151388 30.910425-18.304872a85.288633 85.288633 0 0 0 13.410162-29.837611c3.084337-13.007858 5.565217-26.350969 7.911996-39.224725 1.542169-8.515453 3.151388-17.030906 4.894709-25.546359 1.206915-5.833421 2.950236-8.917758 6.302777-10.392876v0.80461a104.398114 104.398114 0 0 1-1.341017 16.226296c-1.810372 9.253012-3.955998 18.707177-6.034573 27.826087s-4.626506 20.115244-6.705081 30.239916c0 1.743321-0.737559 3.553693-1.139864 5.431116-2.816134 13.410162-6.705081 31.178628 9.722368 42.845469a27.28968 27.28968 0 0 0 15.958093 5.431116 47.673127 47.673127 0 0 0 26.820325-11.53274c1.810372-1.273965 3.620744-2.614982 5.431116-3.754845 7.040335-4.559455 13.946569-9.387114 20.852802-14.214773 10.459927-7.308539 21.255107-14.818229 32.318492-21.322158a51.427973 51.427973 0 0 1 24.8088-8.917758c8.582504 0 16.829754 4.827658 28.362493 16.561551 3.486642 3.553693 6.705081 7.241488 10.392876 10.862231 6.705081 6.705081 13.410162 13.946569 20.115244 20.450498a46.935568 46.935568 0 0 0 31.446831 14.482975 48.075432 48.075432 0 0 0 31.37978-14.348873c4.425354-3.888947 8.649555-8.113148 12.739654-12.136197a212.886328 212.886328 0 0 1 16.360398-15.153484 22.730225 22.730225 0 0 1 12.203248-6.705081c3.151388 0 7.040335 2.413829 13.812467 8.515453zM344.321509 481.089576c-6.705081 40.230487-22.730225 77.041383-39.358827 115.66265l-3.084337 7.174437c-6.034573-50.958617 12.002095-103.526454 42.443164-122.837087zM966.150739 132.291252c-47.807229-42.309062-96.888423-84.685175-138.594029-120.691462a55.518072 55.518072 0 0 0-13.946569-7.777894c-2.48088-1.139864-5.162913-2.346778-8.046097-3.821896l-7.174437 0.737559c-2.212677 1.810372-4.559455 3.419591-6.705081 5.028811A54.780513 54.780513 0 0 0 775.927585 20.115244c-13.410162 20.115244-24.74175 41.3033-35.000524 60.34573a38.353064 38.353064 0 0 0 7.576742 48.880042c38.286014 33.525406 76.035621 66.447355 112.176008 97.022525a38.353064 38.353064 0 0 0 24.875852 10.124673 41.504453 41.504453 0 0 0 24.540597-9.05186c17.36616-12.739654 35.46988-26.820325 53.640649-41.236249a36.207438 36.207438 0 0 0 15.421687-26.820325 34.866422 34.866422 0 0 0-13.007857-27.088528z m-28.161341 25.546359l-8.716606 6.705082c-13.410162 10.459927-25.546359 20.115244-38.353064 29.234154a8.582504 8.582504 0 0 1-3.419592 0.536406 12.739654 12.739654 0 0 1-6.302776-1.408067c-33.525406-28.161341-68.52593-58.066003-103.1912-88.909377a13.007858 13.007858 0 0 1-1.743321-8.381351c7.375589-14.415925 15.555788-28.429544 24.272394-43.247774l5.498167-9.454164z" fill="#00AA64" p-id="33987"></path></svg>